<?xml version="1.0" standalone="no"?>
<!DOCTYPE svg PUBLIC "-//W3C//DTD SVG 20010904//EN"
 "http://www.w3.org/TR/2001/REC-SVG-20010904/DTD/svg10.dtd">
<svg version="1.0" xmlns="http://www.w3.org/2000/svg"
 width="700.000000pt" height="700.000000pt" viewBox="0 0 700.000000 700.000000"
 preserveAspectRatio="xMidYMid meet">
<metadata>
Created by potrace 1.14, written by Peter Selinger 2001-2017
</metadata>
<g transform="translate(0.000000,700.000000) scale(0.100000,-0.100000)"
fill="#000000" stroke="none">
<path d="M2044 6960 c-137 -30 -248 -158 -258 -298 -10 -143 66 -267 202 -330
51 -23 66 -25 213 -26 l159 -1 0 -830 0 -830 -1051 -1575 c-578 -866 -1068
-1600 -1088 -1630 -165 -246 -189 -585 -61 -866 129 -285 420 -497 725 -530
76 -8 5138 -8 5223 0 397 38 722 333 808 731 3 17 8 81 10 143 5 134 -18 259
-70 381 -23 56 -337 533 -1122 1712 l-1091 1634 2 825 c1 454 3 827 3 830 1 3
62 5 135 5 147 -1 217 12 280 52 55 35 93 78 125 143 23 47 27 67 27 140 -1
73 -5 93 -28 138 -37 70 -96 128 -166 161 l-56 26 -1445 1 c-795 0 -1459 -2
-1476 -6z m1957 -659 c3 0 5 -72 5 -158 l-1 -158 -360 -2 c-198 -1 -362 -2
-365 -2 -3 -1 -5 -91 -5 -201 l0 -200 365 0 366 0 -1 -302 0 -303 -365 -5
-365 -5 0 -195 0 -195 365 -5 366 -5 0 -302 0 -303 -86 0 c-47 -1 -211 -1
-365 -1 l-280 1 0 -195 c0 -106 4 -197 8 -201 4 -4 168 -8 364 -8 l358 -1 0
-299 c1 -230 -2 -299 -12 -303 -7 -3 -171 -6 -365 -6 l-352 -2 -1 -188 c0
-103 2 -193 5 -200 4 -9 91 -12 365 -12 l360 0 0 -158 1 -157 -1052 0 -1052 0
-170 -248 c-94 -137 -203 -297 -244 -356 -40 -58 -80 -117 -88 -130 -8 -13
-148 -216 -310 -452 -162 -235 -299 -436 -304 -446 -13 -26 -36 -22 -76 15
-97 88 -145 190 -154 318 -4 65 15 162 42 215 15 30 1892 2849 2169 3258 l53
79 0 904 c0 497 2 908 4 911 4 6 1153 9 1177 3z"/>
</g>
</svg>
